<svg width="45" height="45" viewBox="0 0 45 45" fill="none" xmlns="http://www.w3.org/2000/svg">
<g clip-path="url(#clip0_1_116)">
<path fill-rule="evenodd" clip-rule="evenodd" d="M24.036 45H2.48365C1.11157 45 0 43.8877 0 42.5162V2.48364C0 1.11174 1.11174 0 2.48365 0H42.5165C43.8881 0 45 1.11174 45 2.48364V42.5162C45 43.8879 43.8879 45 42.5165 45H31.0494V27.5735H36.8986L37.7745 20.7821H31.0494V16.4462C31.0494 14.48 31.5954 13.14 34.415 13.14L38.0112 13.1384V7.06415C37.3893 6.98139 35.2545 6.79647 32.7708 6.79647C27.5858 6.79647 24.036 9.96143 24.036 15.7736V20.7821H18.1717V27.5735H24.036V45Z" fill="#4460A0"/>
</g>
<defs>
<clipPath id="clip0_1_116">
<rect width="45" height="45" fill="white"/>
</clipPath>
</defs>
</svg>
