<svg width="80" height="50" viewBox="0 0 80 50" fill="none" xmlns="http://www.w3.org/2000/svg">
<g clip-path="url(#clip0_1_136)">
<path d="M80 8.97437H0V41.0257H80V8.97437Z" fill="white" stroke="black" stroke-width="15.3846"/>
<path d="M30.0718 31.3288L33.4933 18.7801H38.9659L35.5419 31.3288H30.0718ZM55.3139 19.0506C54.2299 18.7964 52.5308 18.5236 50.4092 18.5236C45.0014 18.5236 41.1925 20.2255 41.1598 22.6648C41.1294 24.468 43.8793 25.4739 45.9551 26.0741C48.0855 26.6894 48.8015 27.0816 48.7912 27.6307C48.7776 28.472 47.0901 28.8561 45.517 28.8561C43.3267 28.8561 42.163 28.6659 40.3657 28.1975L39.6602 27.9981L38.8923 30.8072C40.1706 31.1577 42.5342 31.461 44.9886 31.4768C50.7414 31.4768 54.4759 29.7942 54.5184 27.1893C54.5388 25.7617 53.0809 24.6755 49.9234 23.7798C48.0106 23.1993 46.8391 22.8119 46.8515 22.2241C46.8515 21.7025 47.8431 21.1447 49.9859 21.1447C51.7752 21.1273 53.0718 21.3713 54.0819 21.6255L54.5722 21.7703L55.3139 19.0506ZM69.397 18.7799H65.1682C63.8583 18.7799 62.8778 19.0034 62.3026 19.8205L54.1749 31.3205H59.9217C59.9217 31.3205 60.8611 29.7743 61.0736 29.4348C61.7016 29.4348 67.2843 29.4402 68.0824 29.4402C68.2461 29.8795 68.7482 31.3205 68.7482 31.3205H73.8264L69.397 18.7795V18.7799ZM62.6875 26.8831C63.1402 26.1601 64.868 23.3752 64.868 23.3752C64.8358 23.4086 65.3174 22.6486 65.5936 22.1775L65.9634 23.2594C65.9634 23.2594 67.0113 26.2548 67.2304 26.8829H62.6875V26.8831ZM25.426 18.7799L20.0681 27.3376L19.4974 25.5986C18.4998 23.5938 15.3922 21.4218 11.9181 20.3345L16.8173 31.3088L22.6075 31.3048L31.2233 18.7798L25.426 18.7797" fill="#0E4595"/>
<path d="M15.0687 18.7795H6.24402L6.17407 19.0406C13.0396 20.0793 17.5823 22.5895 19.4684 25.606L17.5496 19.8393C17.2184 19.0447 16.2576 18.8076 15.0689 18.7799" fill="#F2AE14"/>
</g>
<defs>
<clipPath id="clip0_1_136">
<rect width="80" height="50" fill="white"/>
</clipPath>
</defs>
</svg>
